%
M48
M71
T01C0.500
%
T01
X0Y0
X1429Y4437
X5755Y8299
X11351Y7585
X13176Y7347
X15597Y7347
X18336Y8855
X22344Y6871
X25956Y4396
X21352Y2108
X27340Y0
X24051Y9252
X26302Y11520
X26302Y14060
X22939Y11474
X21352Y15919
X21352Y17666
X21352Y19372
X21352Y21118
X21352Y22865
X22503Y25365
X26302Y24220
X26302Y21680
X26302Y19140
X26302Y16600
X17502Y15602
X15399Y14014
X14367Y9966
X5953Y2108
X1429Y9966
X2064Y12268
X1270Y15954
X4959Y19806
X4959Y22266
X3149Y24871
X6879Y24871
X9763Y21952
X13256Y21987
X14526Y17824
X27340Y26900
X0Y26900
M30
