%
M48
M71
T01C0.500
T02C1.000
T03C1.016
%
T01
X0Y0
X1429Y4437
X3492Y6672
X5755Y8299
X11351Y7585
X13176Y7347
X15597Y7347
X18336Y8855
X22344Y6871
X25956Y4396
X21352Y2108
X27340Y0
X33734Y3800
X33734Y6340
X33655Y10419
X26302Y16200
X26302Y18740
X26302Y21280
X26302Y23820
X22503Y25365
X21352Y22865
X21352Y21118
X21352Y19372
X21352Y17666
X21352Y15919
X26302Y13660
X22939Y11474
X24051Y9252
X26302Y11120
X17502Y15602
X15399Y14014
X14367Y9966
X5953Y2108
X1429Y9966
X2064Y12268
X4959Y19726
X4959Y22266
X6879Y24871
X13256Y21987
X9763Y21952
X14526Y17824
X3149Y24871
X0Y26900
X27340Y26900
T02
X17463Y25156
X14922Y25156
X12382Y25156
X9843Y25156
T03
X37724Y16204
X37724Y18744
X37724Y21284
X35184Y21284
X35184Y18744
X35184Y16204
M30
